<svg width="0" height="0" class="hidden">
  <symbol fill="none" xmlns="http://www.w3.org/2000/svg" viewBox="0 0 32 32" id="Frame (1)">
    <path d="M15.9998 11.9998C14.939 11.9998 13.9216 12.4213 13.1714 13.1714C12.4213 13.9216 11.9998 14.939 11.9998 15.9998C11.9998 17.0607 12.4213 18.0781 13.1714 18.8283C13.9216 19.5784 14.939 19.9998 15.9998 19.9998C17.0607 19.9998 18.0781 19.5784 18.8283 18.8283C19.5784 18.0781 19.9998 17.0607 19.9998 15.9998C19.9998 14.939 19.5784 13.9216 18.8283 13.1714C18.0781 12.4213 17.0607 11.9998 15.9998 11.9998ZM15.9998 9.33317C17.7679 9.33317 19.4636 10.0355 20.7139 11.2858C21.9641 12.536 22.6665 14.2317 22.6665 15.9998C22.6665 17.7679 21.9641 19.4636 20.7139 20.7139C19.4636 21.9641 17.7679 22.6665 15.9998 22.6665C14.2317 22.6665 12.536 21.9641 11.2858 20.7139C10.0355 19.4636 9.33317 17.7679 9.33317 15.9998C9.33317 14.2317 10.0355 12.536 11.2858 11.2858C12.536 10.0355 14.2317 9.33317 15.9998 9.33317ZM24.6665 8.99984C24.6665 9.44186 24.4909 9.86579 24.1784 10.1783C23.8658 10.4909 23.4419 10.6665 22.9998 10.6665C22.5578 10.6665 22.1339 10.4909 21.8213 10.1783C21.5088 9.86579 21.3332 9.44186 21.3332 8.99984C21.3332 8.55781 21.5088 8.13389 21.8213 7.82133C22.1339 7.50877 22.5578 7.33317 22.9998 7.33317C23.4419 7.33317 23.8658 7.50877 24.1784 7.82133C24.4909 8.13389 24.6665 8.55781 24.6665 8.99984ZM15.9998 5.33317C12.7012 5.33317 12.1625 5.3425 10.6278 5.4105C9.5825 5.45984 8.88117 5.59984 8.2305 5.85317C7.65184 6.07717 7.2345 6.34517 6.7905 6.7905C6.37318 7.1937 6.05231 7.68595 5.85184 8.2305C5.5985 8.88384 5.4585 9.58384 5.4105 10.6278C5.34117 12.0998 5.33317 12.6145 5.33317 15.9998C5.33317 19.2985 5.3425 19.8372 5.4105 21.3718C5.45984 22.4158 5.59984 23.1185 5.85184 23.7678C6.0785 24.3478 6.34517 24.7652 6.78784 25.2078C7.23717 25.6558 7.6545 25.9238 8.22784 26.1452C8.8865 26.3998 9.58784 26.5412 10.6278 26.5892C12.0998 26.6585 12.6145 26.6665 15.9998 26.6665C19.2985 26.6665 19.8372 26.6572 21.3718 26.5892C22.4145 26.5398 23.1172 26.3998 23.7678 26.1478C24.3452 25.9225 24.7652 25.6545 25.2078 25.2118C25.6572 24.7625 25.9252 24.3452 26.1465 23.7718C26.3998 23.1145 26.5412 22.4118 26.5892 21.3718C26.6585 19.8998 26.6665 19.3852 26.6665 15.9998C26.6665 12.7012 26.6572 12.1625 26.5892 10.6278C26.5398 9.58517 26.3998 8.88117 26.1465 8.2305C25.9456 7.68651 25.6253 7.19445 25.2092 6.7905C24.8061 6.37297 24.3139 6.05206 23.7692 5.85184C23.1158 5.5985 22.4145 5.4585 21.3718 5.4105C19.8998 5.34117 19.3852 5.33317 15.9998 5.33317ZM15.9998 2.6665C19.6225 2.6665 20.0745 2.67984 21.4958 2.7465C22.9158 2.81317 23.8825 3.03584 24.7332 3.3665C25.6132 3.70517 26.3545 4.16384 27.0958 4.90384C27.7738 5.57037 28.2984 6.37662 28.6332 7.2665C28.9625 8.11584 29.1865 9.08384 29.2532 10.5038C29.3158 11.9252 29.3332 12.3772 29.3332 15.9998C29.3332 19.6225 29.3198 20.0745 29.2532 21.4958C29.1865 22.9158 28.9625 23.8825 28.6332 24.7332C28.2994 25.6235 27.7747 26.43 27.0958 27.0958C26.4291 27.7736 25.6229 28.2982 24.7332 28.6332C23.8838 28.9625 22.9158 29.1865 21.4958 29.2532C20.0745 29.3158 19.6225 29.3332 15.9998 29.3332C12.3772 29.3332 11.9252 29.3198 10.5038 29.2532C9.08384 29.1865 8.11717 28.9625 7.2665 28.6332C6.37627 28.2991 5.56987 27.7744 4.90384 27.0958C4.22571 26.4294 3.70108 25.6231 3.3665 24.7332C3.03584 23.8838 2.81317 22.9158 2.7465 21.4958C2.68384 20.0745 2.6665 19.6225 2.6665 15.9998C2.6665 12.3772 2.67984 11.9252 2.7465 10.5038C2.81317 9.0825 3.03584 8.11717 3.3665 7.2665C3.70015 6.37608 4.22491 5.5696 4.90384 4.90384C5.57007 4.22548 6.37641 3.70081 7.2665 3.3665C8.11717 3.03584 9.0825 2.81317 10.5038 2.7465C11.9252 2.68384 12.3772 2.6665 15.9998 2.6665Z" fill="#1A3237"></path>
  </symbol>
  <symbol fill="none" xmlns="http://www.w3.org/2000/svg" viewBox="0 0 32 32" id="Frame (2)">
    <path d="M17.3332 26.5838C20.0229 26.2416 22.4814 24.888 24.2089 22.7982C25.9365 20.7084 26.8035 18.0392 26.6337 15.3331C26.4639 12.627 25.2701 10.0872 23.2948 8.22968C21.3196 6.3722 18.7112 5.33653 15.9998 5.33317C13.2851 5.33115 10.6718 6.36429 8.69229 8.22207C6.71281 10.0799 5.51616 12.6225 5.34616 15.3319C5.17617 18.0413 6.04562 20.7135 7.77736 22.8042C9.50911 24.8948 11.9728 26.2465 14.6665 26.5838V18.6665H11.9998V15.9998H14.6665V13.7945C14.6665 12.0118 14.8532 11.3652 15.1998 10.7132C15.5413 10.0681 16.0691 9.54075 16.7145 9.19984C17.2238 8.9265 17.8572 8.7625 18.9638 8.69184C19.4025 8.66384 19.9705 8.6985 20.6678 8.7985V11.3318H19.9998C18.7772 11.3318 18.2718 11.3892 17.9705 11.5505C17.7907 11.643 17.6443 11.7894 17.5518 11.9692C17.3918 12.2705 17.3332 12.5692 17.3332 13.7932V15.9998H20.6665L19.9998 18.6665H17.3332V26.5838ZM15.9998 29.3332C8.63584 29.3332 2.6665 23.3638 2.6665 15.9998C2.6665 8.63584 8.63584 2.6665 15.9998 2.6665C23.3638 2.6665 29.3332 8.63584 29.3332 15.9998C29.3332 23.3638 23.3638 29.3332 15.9998 29.3332Z" fill="#1A3237"></path>
  </symbol>
  <symbol fill="none" xmlns="http://www.w3.org/2000/svg" viewBox="0 0 32 32" id="Frame">
    <path d="M20.3999 7.39983C19.3865 7.39966 18.4135 7.79732 17.6904 8.50725C16.9673 9.21718 16.5517 10.1826 16.5332 11.1958L16.4959 13.2958C16.4937 13.4086 16.4677 13.5196 16.4196 13.6216C16.3715 13.7236 16.3023 13.8143 16.2167 13.8877C16.1311 13.9611 16.0309 14.0155 15.9228 14.0475C15.8146 14.0795 15.701 14.0882 15.5892 14.0732L13.5079 13.7905C10.7692 13.4172 8.1452 12.1558 5.62786 10.0585C4.83053 14.4718 6.38786 17.5292 10.1385 19.8878L12.4679 21.3518C12.5785 21.4214 12.6705 21.517 12.7357 21.6303C12.8008 21.7436 12.8373 21.8712 12.8417 22.0018C12.8462 22.1324 12.8186 22.2622 12.7613 22.3797C12.704 22.4972 12.6189 22.5989 12.5132 22.6758L10.3905 24.2265C11.6532 24.3052 12.8519 24.2492 13.8465 24.0518C20.1372 22.7958 24.3199 18.0625 24.3199 10.2545C24.3199 9.61716 22.9705 7.39983 20.3999 7.39983ZM13.8665 11.1465C13.8898 9.86123 14.2917 8.61139 15.0219 7.55346C15.7522 6.49553 16.7783 5.67652 17.9718 5.19898C19.1652 4.72145 20.4731 4.6066 21.7315 4.86882C22.99 5.13105 24.1431 5.75869 25.0465 6.67316C25.9945 6.66649 26.8012 6.90649 28.6052 5.81316C28.1585 7.99983 27.9385 8.94916 26.9865 10.2545C26.9865 20.4438 20.7239 25.3985 14.3692 26.6665C10.0119 27.5358 3.67586 26.1078 1.85986 24.2118C2.7852 24.1398 6.5452 23.7358 8.71853 22.1452C6.87986 20.9332 -0.438803 16.6265 4.37053 5.04783C6.62786 7.68383 8.9172 9.47849 11.2372 10.4305C12.7812 11.0638 13.1599 11.0505 13.8679 11.1478L13.8665 11.1465Z" fill="#1A3237"></path>
  </symbol>
  <symbol fill="none" xmlns="http://www.w3.org/2000/svg" viewBox="0 0 39 26" id="leaf-fill 1">
    <path d="M33.8439 3.18652V5.31075C33.8439 15.5357 25.1847 20.1803 14.5046 20.1803H11.4393C11.781 16.9812 13.2927 15.045 17.2379 12.7445C19.1783 11.6133 19.0139 10.9601 18.0582 11.335C11.4764 13.916 8.20805 17.4039 8.06301 22.9737L8.05818 23.3666H4.83496C4.83496 21.919 5.02191 20.6052 5.39258 19.4028C5.02191 18.0285 4.83496 16.1634 4.83496 13.8076C4.83496 7.9416 12.0501 3.18652 20.951 3.18652C24.1742 3.18652 27.3975 4.24864 33.8439 3.18652Z" fill="#435151"></path>
  </symbol>
  <symbol fill="none" xmlns="http://www.w3.org/2000/svg" viewBox="0 0 32 35" id="Menu">
    <g filter="url(#filter0_d)">
      <path d="M4 5.3335H28V8.00016H4V5.3335ZM12 14.6668H28V17.3335H12V14.6668ZM4 24.0002H28V26.6668H4V24.0002Z" fill="white"></path>
    </g>
    <defs>
      <filter id="filter0_d" x="-4" y="0" width="40" height="40" filterUnits="userSpaceOnUse" color-interpolation-filters="sRGB">
        <feFlood flood-opacity="0" result="BackgroundImageFix"></feFlood>
        <feColorMatrix in="SourceAlpha" type="matrix" values="0 0 0 0 0 0 0 0 0 0 0 0 0 0 0 0 0 0 127 0" result="hardAlpha"></feColorMatrix>
        <feOffset dy="4"></feOffset>
        <feGaussianBlur stdDeviation="2"></feGaussianBlur>
        <feComposite in2="hardAlpha" operator="out"></feComposite>
        <feColorMatrix type="matrix" values="0 0 0 0 0 0 0 0 0 0 0 0 0 0 0 0 0 0 0.25 0"></feColorMatrix>
        <feBlend mode="normal" in2="BackgroundImageFix" result="effect1_dropShadow"></feBlend>
        <feBlend mode="normal" in="SourceGraphic" in2="effect1_dropShadow" result="shape"></feBlend>
      </filter>
    </defs>
  </symbol>
  <symbol fill="none" xmlns="http://www.w3.org/2000/svg" viewBox="0 0 32 32" id="Profile">
    <path d="M5.3335 29.3335C5.3335 26.5045 6.4573 23.7914 8.45769 21.791C10.4581 19.7906 13.1712 18.6668 16.0002 18.6668C18.8291 18.6668 21.5422 19.7906 23.5426 21.791C25.543 23.7914 26.6668 26.5045 26.6668 29.3335H24.0002C24.0002 27.2118 23.1573 25.1769 21.657 23.6766C20.1567 22.1763 18.1219 21.3335 16.0002 21.3335C13.8784 21.3335 11.8436 22.1763 10.3433 23.6766C8.84302 25.1769 8.00016 27.2118 8.00016 29.3335H5.3335ZM16.0002 17.3335C11.5802 17.3335 8.00016 13.7535 8.00016 9.3335C8.00016 4.9135 11.5802 1.3335 16.0002 1.3335C20.4202 1.3335 24.0002 4.9135 24.0002 9.3335C24.0002 13.7535 20.4202 17.3335 16.0002 17.3335ZM16.0002 14.6668C18.9468 14.6668 21.3335 12.2802 21.3335 9.3335C21.3335 6.38683 18.9468 4.00016 16.0002 4.00016C13.0535 4.00016 10.6668 6.38683 10.6668 9.3335C10.6668 12.2802 13.0535 14.6668 16.0002 14.6668Z" fill="white"></path>
  </symbol>
  <symbol fill="none" xmlns="http://www.w3.org/2000/svg" viewBox="0 0 32 32" id="Search">
    <path d="M14.6665 2.6665C21.2905 2.6665 26.6665 8.0425 26.6665 14.6665C26.6665 21.2905 21.2905 26.6665 14.6665 26.6665C8.0425 26.6665 2.6665 21.2905 2.6665 14.6665C2.6665 8.0425 8.0425 2.6665 14.6665 2.6665ZM14.6665 23.9998C19.8225 23.9998 23.9998 19.8225 23.9998 14.6665C23.9998 9.50917 19.8225 5.33317 14.6665 5.33317C9.50917 5.33317 5.33317 9.50917 5.33317 14.6665C5.33317 19.8225 9.50917 23.9998 14.6665 23.9998ZM25.9798 24.0945L29.7518 27.8652L27.8652 29.7518L24.0945 25.9798L25.9798 24.0945Z" fill="white"></path>
  </symbol>
</svg>